<?xml version="1.0" encoding="UTF-8" standalone="no"?>
<!DOCTYPE svg PUBLIC "-//W3C//DTD SVG 1.1//EN"
 "http://www.w3.org/Graphics/SVG/1.1/DTD/svg11.dtd">
<!-- Generated by graphviz version 2.28.0 (20111211.2114)
 -->
<!-- Title: G Pages: 1 -->
<!--zoomable 140 -->
<svg id="main" version="1.1" xmlns="http://www.w3.org/2000/svg" xmlns:xlink="http://www.w3.org/1999/xlink" xml:space="preserve" onload="init(evt)">
        <defs>
                <circle id="rim" cx="0" cy="0" r="7"/>
                <circle id="rim2" cx="0" cy="0" r="3.5"/>
                <g id="zoomPlus">
                        <use xlink:href="#rim" fill="#404040">
                                <set attributeName="fill" to="#808080" begin="zoomplus.mouseover" end="zoomplus.mouseout"/>
                        </use>
                        <path d="M-4,0h8M0,-4v8" fill="none" stroke="white" stroke-width="1.5" pointer-events="none"/>
                </g>
                <g id="zoomMin">
                        <use xlink:href="#rim" fill="#404040">
                                <set attributeName="fill" to="#808080" begin="zoomminus.mouseover" end="zoomminus.mouseout"/>
                        </use>
                        <path d="M-4,0h8" fill="none" stroke="white" stroke-width="1.5" pointer-events="none"/>
                </g>
                <g id="dirArrow">
                        <path fill="none" stroke="white" stroke-width="1.5" d="M0,-3.0v7 M-2.5,-0.5L0,-3.0L2.5,-0.5"/>
                </g>
               <g id="resetDef">
                       <use xlink:href="#rim2" fill="#404040">
                               <set attributeName="fill" to="#808080" begin="reset.mouseover" end="reset.mouseout"/>
                       </use>
               </g>
        </defs>

<script type="text/javascript">
var viewWidth = 922;
var viewHeight = 140;
var sectionId = 'dynsection-0';
</script>
<script xlink:href="svgpan.js"/>
<svg id="graph" class="graph">
<g id="viewport">
<title>G</title>
<polygon fill="white" stroke="white" points="-4,5 -4,-136 919,-136 919,5 -4,5"/>
<!-- Node1 -->
<g id="node1" class="node"><title>Node1</title>
<polygon fill="#bfbfbf" stroke="black" points="387.5,-112.5 387.5,-131.5 480.5,-131.5 480.5,-112.5 387.5,-112.5"/>
<text text-anchor="middle" x="434" y="-119.5" font-family="Helvetica,sans-Serif" font-size="10.00">PCNErrorTool.cc</text>
</g>
<!-- Node2 -->
<g id="node3" class="node"><title>Node2</title>
<polygon fill="white" stroke="#bfbfbf" points="0,-56.5 0,-75.5 56,-75.5 56,-56.5 0,-56.5"/>
<text text-anchor="middle" x="28" y="-63.5" font-family="Helvetica,sans-Serif" font-size="10.00">iostream</text>
</g>
<!-- Node1&#45;&gt;Node2 -->
<g id="edge2" class="edge"><title>Node1&#45;&gt;Node2</title>
<path fill="none" stroke="midnightblue" d="M387.267,-116.553C317.807,-109.643 183.334,-95.1104 70,-76 68.7591,-75.7908 67.4993,-75.57 66.2285,-75.3402"/>
<polygon fill="midnightblue" stroke="midnightblue" points="66.8839,-71.9021 56.4013,-73.4403 65.5552,-78.7749 66.8839,-71.9021"/>
</g>
<!-- Node3 -->
<g id="node5" class="node"><title>Node3</title>
<polygon fill="white" stroke="#bfbfbf" points="56.5,-0.5 56.5,-19.5 97.5,-19.5 97.5,-0.5 56.5,-0.5"/>
<text text-anchor="middle" x="77" y="-7.5" font-family="Helvetica,sans-Serif" font-size="10.00">string</text>
</g>
<!-- Node1&#45;&gt;Node3 -->
<g id="edge4" class="edge"><title>Node1&#45;&gt;Node3</title>
<path fill="none" stroke="midnightblue" d="M387.321,-118.205C313.313,-113.096 173.021,-100.453 130,-76 110.686,-65.0219 95.5674,-44.0402 86.5043,-28.8791"/>
<polygon fill="midnightblue" stroke="midnightblue" points="89.4078,-26.903 81.4397,-19.9202 83.3141,-30.3479 89.4078,-26.903"/>
</g>
<!-- Node4 -->
<g id="node7" class="node"><title>Node4</title>
<polygon fill="white" stroke="#bfbfbf" points="264.5,-56.5 264.5,-75.5 317.5,-75.5 317.5,-56.5 264.5,-56.5"/>
<text text-anchor="middle" x="291" y="-63.5" font-family="Helvetica,sans-Serif" font-size="10.00">sstream</text>
</g>
<!-- Node1&#45;&gt;Node4 -->
<g id="edge6" class="edge"><title>Node1&#45;&gt;Node4</title>
<path fill="none" stroke="midnightblue" d="M411.341,-112.444C387.598,-103.478 350.091,-89.314 323.262,-79.1827"/>
<polygon fill="midnightblue" stroke="midnightblue" points="324.144,-75.7749 313.553,-75.5164 321.671,-82.3235 324.144,-75.7749"/>
</g>
<!-- Node5 -->
<g id="node9" class="node"><title>Node5</title>
<polygon fill="white" stroke="#bfbfbf" points="336,-56.5 336,-75.5 386,-75.5 386,-56.5 336,-56.5"/>
<text text-anchor="middle" x="361" y="-63.5" font-family="Helvetica,sans-Serif" font-size="10.00">cassert</text>
</g>
<!-- Node1&#45;&gt;Node5 -->
<g id="edge8" class="edge"><title>Node1&#45;&gt;Node5</title>
<path fill="none" stroke="midnightblue" d="M422.271,-112.324C411.163,-104.107 394.258,-91.6017 381.017,-81.8069"/>
<polygon fill="midnightblue" stroke="midnightblue" points="383.063,-78.9671 372.942,-75.8339 378.9,-84.5948 383.063,-78.9671"/>
</g>
<!-- Node6 -->
<g id="node11" class="node"><title>Node6</title>
<polygon fill="white" stroke="#bfbfbf" points="404,-56.5 404,-75.5 464,-75.5 464,-56.5 404,-56.5"/>
<text text-anchor="middle" x="434" y="-63.5" font-family="Helvetica,sans-Serif" font-size="10.00">exception</text>
</g>
<!-- Node1&#45;&gt;Node6 -->
<g id="edge10" class="edge"><title>Node1&#45;&gt;Node6</title>
<path fill="none" stroke="midnightblue" d="M434,-112.083C434,-105.006 434,-94.8611 434,-85.9865"/>
<polygon fill="midnightblue" stroke="midnightblue" points="437.5,-85.751 434,-75.7511 430.5,-85.7511 437.5,-85.751"/>
</g>
<!-- Node7 -->
<g id="node13" class="node"><title>Node7</title>
<polygon fill="white" stroke="#bfbfbf" points="115.5,-0.5 115.5,-19.5 166.5,-19.5 166.5,-0.5 115.5,-0.5"/>
<text text-anchor="middle" x="141" y="-7.5" font-family="Helvetica,sans-Serif" font-size="10.00">TH2D.h</text>
</g>
<!-- Node1&#45;&gt;Node7 -->
<g id="edge12" class="edge"><title>Node1&#45;&gt;Node7</title>
<path fill="none" stroke="midnightblue" d="M387.251,-120.893C312.718,-119.619 172.169,-112.322 141,-76 130.225,-63.4434 131.793,-43.9474 135.099,-29.5803"/>
<polygon fill="midnightblue" stroke="midnightblue" points="138.514,-30.3635 137.791,-19.7934 131.764,-28.507 138.514,-30.3635"/>
</g>
<!-- Node8 -->
<g id="node15" class="node"><title>Node8</title>
<polygon fill="white" stroke="#bfbfbf" points="482.5,-56.5 482.5,-75.5 549.5,-75.5 549.5,-56.5 482.5,-56.5"/>
<text text-anchor="middle" x="516" y="-63.5" font-family="Helvetica,sans-Serif" font-size="10.00">TCanvas.h</text>
</g>
<!-- Node1&#45;&gt;Node8 -->
<g id="edge14" class="edge"><title>Node1&#45;&gt;Node8</title>
<path fill="none" stroke="midnightblue" d="M447.175,-112.324C459.847,-103.979 479.233,-91.2122 494.206,-81.3524"/>
<polygon fill="midnightblue" stroke="midnightblue" points="496.431,-84.0776 502.858,-75.6545 492.581,-78.2313 496.431,-84.0776"/>
</g>
<!-- Node9 -->
<g id="node17" class="node"><title>Node9</title>
<polygon fill="white" stroke="#bfbfbf" points="568,-56.5 568,-75.5 622,-75.5 622,-56.5 568,-56.5"/>
<text text-anchor="middle" x="595" y="-63.5" font-family="Helvetica,sans-Serif" font-size="10.00">TTree.h</text>
</g>
<!-- Node1&#45;&gt;Node9 -->
<g id="edge16" class="edge"><title>Node1&#45;&gt;Node9</title>
<path fill="none" stroke="midnightblue" d="M459.511,-112.444C486.596,-103.359 529.59,-88.9388 559.869,-78.7831"/>
<polygon fill="midnightblue" stroke="midnightblue" points="561.24,-82.0148 569.608,-75.5164 559.014,-75.3781 561.24,-82.0148"/>
</g>
<!-- Node10 -->
<g id="node19" class="node"><title>Node10</title>
<polygon fill="white" stroke="#bfbfbf" points="640,-56.5 640,-75.5 688,-75.5 688,-56.5 640,-56.5"/>
<text text-anchor="middle" x="664" y="-63.5" font-family="Helvetica,sans-Serif" font-size="10.00">TFile.h</text>
</g>
<!-- Node1&#45;&gt;Node10 -->
<g id="edge18" class="edge"><title>Node1&#45;&gt;Node10</title>
<path fill="none" stroke="midnightblue" d="M473.735,-112.433C511.503,-104.177 570.128,-91.0694 629.892,-76.2017"/>
<polygon fill="midnightblue" stroke="midnightblue" points="631.028,-79.5253 639.88,-73.7028 629.329,-72.7345 631.028,-79.5253"/>
</g>
<!-- Node11 -->
<g id="node21" class="node"><title>Node11</title>
<polygon fill="white" stroke="#bfbfbf" points="706,-56.5 706,-75.5 760,-75.5 760,-56.5 706,-56.5"/>
<text text-anchor="middle" x="733" y="-63.5" font-family="Helvetica,sans-Serif" font-size="10.00">TStyle.h</text>
</g>
<!-- Node1&#45;&gt;Node11 -->
<g id="edge20" class="edge"><title>Node1&#45;&gt;Node11</title>
<path fill="none" stroke="midnightblue" d="M480.759,-114.091C531.444,-106.359 614.909,-92.9226 696.043,-76.0734"/>
<polygon fill="midnightblue" stroke="midnightblue" points="696.855,-79.4794 705.924,-74.0018 695.418,-72.6284 696.855,-79.4794"/>
</g>
<!-- Node12 -->
<g id="node23" class="node"><title>Node12</title>
<polygon fill="white" stroke="#bfbfbf" points="778.5,-56.5 778.5,-75.5 839.5,-75.5 839.5,-56.5 778.5,-56.5"/>
<text text-anchor="middle" x="809" y="-63.5" font-family="Helvetica,sans-Serif" font-size="10.00">TROOT.h</text>
</g>
<!-- Node1&#45;&gt;Node12 -->
<g id="edge22" class="edge"><title>Node1&#45;&gt;Node12</title>
<path fill="none" stroke="midnightblue" d="M480.534,-116.056C543.514,-109.078 659.565,-95.2016 768.627,-75.9173"/>
<polygon fill="midnightblue" stroke="midnightblue" points="769.253,-79.3611 778.481,-74.1565 768.021,-72.4702 769.253,-79.3611"/>
</g>
<!-- Node13 -->
<g id="node25" class="node"><title>Node13</title>
<polygon fill="white" stroke="#bfbfbf" points="857.5,-56.5 857.5,-75.5 914.5,-75.5 914.5,-56.5 857.5,-56.5"/>
<text text-anchor="middle" x="886" y="-63.5" font-family="Helvetica,sans-Serif" font-size="10.00">TString.h</text>
</g>
<!-- Node1&#45;&gt;Node13 -->
<g id="edge24" class="edge"><title>Node1&#45;&gt;Node13</title>
<path fill="none" stroke="midnightblue" d="M480.518,-117.839C555.601,-112.323 708.278,-99.3996 847.449,-75.8769"/>
<polygon fill="midnightblue" stroke="midnightblue" points="848.179,-79.303 857.444,-74.165 846.997,-72.4034 848.179,-79.303"/>
</g>
<!-- Node14 -->
<g id="node27" class="node"><title>Node14</title>
<a xlink:href="PCNErrorMap_8hxx.html" target="_top" xlink:title="Definition for the PCNError and PCNErrorMap classes.">
<polygon fill="white" stroke="black" points="150,-56.5 150,-75.5 246,-75.5 246,-56.5 150,-56.5"/>
<text text-anchor="middle" x="198" y="-63.5" font-family="Helvetica,sans-Serif" font-size="10.00">PCNErrorMap.hxx</text>
</a>
</g>
<!-- Node1&#45;&gt;Node14 -->
<g id="edge26" class="edge"><title>Node1&#45;&gt;Node14</title>
<path fill="none" stroke="midnightblue" d="M396.605,-112.444C355.608,-103.063 289.746,-87.9926 245.216,-77.8036"/>
<polygon fill="midnightblue" stroke="midnightblue" points="245.749,-74.3352 235.22,-75.5164 244.187,-81.1588 245.749,-74.3352"/>
</g>
<!-- Node14&#45;&gt;Node3 -->
<g id="edge28" class="edge"><title>Node14&#45;&gt;Node3</title>
<path fill="none" stroke="midnightblue" d="M178.827,-56.4435C159.091,-47.6356 128.115,-33.8116 105.507,-23.722"/>
<polygon fill="midnightblue" stroke="midnightblue" points="106.641,-20.3957 96.0831,-19.5164 103.789,-26.788 106.641,-20.3957"/>
</g>
<!-- Node14&#45;&gt;Node7 -->
<g id="edge34" class="edge"><title>Node14&#45;&gt;Node7</title>
<path fill="none" stroke="midnightblue" d="M188.842,-56.324C180.499,-48.4196 167.968,-36.5482 157.823,-26.9377"/>
<polygon fill="midnightblue" stroke="midnightblue" points="159.991,-24.1705 150.325,-19.8339 155.177,-29.2522 159.991,-24.1705"/>
</g>
<!-- Node15 -->
<g id="node30" class="node"><title>Node15</title>
<polygon fill="white" stroke="#bfbfbf" points="185,-0.5 185,-19.5 225,-19.5 225,-0.5 185,-0.5"/>
<text text-anchor="middle" x="205" y="-7.5" font-family="Helvetica,sans-Serif" font-size="10.00">bitset</text>
</g>
<!-- Node14&#45;&gt;Node15 -->
<g id="edge30" class="edge"><title>Node14&#45;&gt;Node15</title>
<path fill="none" stroke="midnightblue" d="M199.156,-56.083C200.084,-48.9272 201.418,-38.6353 202.577,-29.6911"/>
<polygon fill="midnightblue" stroke="midnightblue" points="206.051,-30.1181 203.866,-19.7511 199.109,-29.2181 206.051,-30.1181"/>
</g>
<!-- Node16 -->
<g id="node32" class="node"><title>Node16</title>
<polygon fill="white" stroke="#bfbfbf" points="243,-0.5 243,-19.5 279,-19.5 279,-0.5 243,-0.5"/>
<text text-anchor="middle" x="261" y="-7.5" font-family="Helvetica,sans-Serif" font-size="10.00">map</text>
</g>
<!-- Node14&#45;&gt;Node16 -->
<g id="edge32" class="edge"><title>Node14&#45;&gt;Node16</title>
<path fill="none" stroke="midnightblue" d="M208.122,-56.324C217.526,-48.2631 231.744,-36.0765 243.069,-26.3695"/>
<polygon fill="midnightblue" stroke="midnightblue" points="245.379,-28.9993 250.694,-19.8339 240.823,-23.6844 245.379,-28.9993"/>
</g>
</g>
</svg>
        <g id="navigator" transform="translate(0 0)" fill="#404254">
                <rect fill="#f2f5e9" fill-opacity="0.5" stroke="#606060" stroke-width=".5" x="0" y="0" width="60" height="60"/>
                <use id="zoomplus" xlink:href="#zoomPlus" x="17" y="9" onmousedown="handleZoom(evt,'in')"/>
                <use id="zoomminus" xlink:href="#zoomMin" x="42" y="9" onmousedown="handleZoom(evt,'out')"/>
                <use id="reset" xlink:href="#resetDef" x="30" y="36" onmousedown="handleReset()"/>
                <g id="arrowUp" xlink:href="#dirArrow" transform="translate(30 24)" onmousedown="handlePan(0,-1)">
                  <use xlink:href="#rim" fill="#404040">
                        <set attributeName="fill" to="#808080" begin="arrowUp.mouseover" end="arrowUp.mouseout"/>
                  </use>
                  <path fill="none" stroke="white" stroke-width="1.5" d="M0,-3.0v7 M-2.5,-0.5L0,-3.0L2.5,-0.5"/>
                </g>
                <g id="arrowRight" xlink:href="#dirArrow" transform="rotate(90) translate(36 -43)" onmousedown="handlePan(1,0)">
                  <use xlink:href="#rim" fill="#404040">
                        <set attributeName="fill" to="#808080" begin="arrowRight.mouseover" end="arrowRight.mouseout"/>
                  </use>
                  <path fill="none" stroke="white" stroke-width="1.5" d="M0,-3.0v7 M-2.5,-0.5L0,-3.0L2.5,-0.5"/>
                </g>
                <g id="arrowDown" xlink:href="#dirArrow" transform="rotate(180) translate(-30 -48)" onmousedown="handlePan(0,1)">
                  <use xlink:href="#rim" fill="#404040">
                        <set attributeName="fill" to="#808080" begin="arrowDown.mouseover" end="arrowDown.mouseout"/>
                  </use>
                  <path fill="none" stroke="white" stroke-width="1.5" d="M0,-3.0v7 M-2.5,-0.5L0,-3.0L2.5,-0.5"/>
                </g>
                <g id="arrowLeft" xlink:href="#dirArrow" transform="rotate(270) translate(-36 17)" onmousedown="handlePan(-1,0)">
                  <use xlink:href="#rim" fill="#404040">
                        <set attributeName="fill" to="#808080" begin="arrowLeft.mouseover" end="arrowLeft.mouseout"/>
                  </use>
                  <path fill="none" stroke="white" stroke-width="1.5" d="M0,-3.0v7 M-2.5,-0.5L0,-3.0L2.5,-0.5"/>
                </g>
        </g>
        <svg viewBox="0 0 25 25" width="100%" height="30px" preserveAspectRatio="xMaxYMin meet"> 
          <g id="printButton" transform="scale(0.4 0.4)" onmousedown="handlePrint(evt)">
            <rect height="23.33753581" id="paper" rx="2" style="fill:#f2f5e9;fill-rule:evenodd;stroke:#111111;stroke-width:3.224;stroke-linejoin:round;" transform="matrix(1.000000,0.000000,-0.339266,0.940691,0.000000,0.000000)" width="25.55231285" x="26.69387353" y="7.36162977"/>
            <rect height="26.272097" id="body" rx="2" style="fill:#404040;fill-rule:evenodd;stroke:#111111;stroke-width:3.125;stroke-linejoin:round;" width="50" x="4.5295201" y="27.078951"/>
            <rect height="8.27750969" id="tray" style="fill:#d2d5c9;fill-rule:evenodd;stroke:#111111;stroke-width:3.125;stroke-linecap:round;stroke-linejoin:round;" width="40" x="10.28778839" y="44.96812282"/>
          </g>
        </svg>
</svg>
